<mxfile host="app.diagrams.net" agent="Mozilla/5.0 (Windows NT 10.0; Win64; x64) AppleWebKit/537.36 (KHTML, like Gecko) Chrome/130.0.0.0 Safari/537.36" version="24.8.4">
  <diagram name="Страница — 1" id="90wIjxf1Vjary77p0QvD">
    <mxGraphModel dx="1418" dy="875" grid="1" gridSize="10" guides="1" tooltips="1" connect="1" arrows="1" fold="1" page="1" pageScale="1" pageWidth="850" pageHeight="1100" math="0" shadow="0">
      <root>
        <mxCell id="0" />
        <mxCell id="1" parent="0" />
        <mxCell id="rd8jLOXh-ryhbIn53XRB-4" style="edgeStyle=orthogonalEdgeStyle;rounded=0;orthogonalLoop=1;jettySize=auto;html=1;exitX=0.5;exitY=1;exitDx=0;exitDy=0;entryX=0.5;entryY=0;entryDx=0;entryDy=0;" parent="1" source="rd8jLOXh-ryhbIn53XRB-1" target="rd8jLOXh-ryhbIn53XRB-2" edge="1">
          <mxGeometry relative="1" as="geometry" />
        </mxCell>
        <mxCell id="rd8jLOXh-ryhbIn53XRB-1" value="0&lt;font color=&quot;#ff3333&quot;&gt;1&lt;/font&gt;111011" style="rounded=0;whiteSpace=wrap;html=1;" parent="1" vertex="1">
          <mxGeometry x="360" y="210" width="120" height="30" as="geometry" />
        </mxCell>
        <mxCell id="rd8jLOXh-ryhbIn53XRB-6" style="edgeStyle=orthogonalEdgeStyle;rounded=0;orthogonalLoop=1;jettySize=auto;html=1;exitX=0.5;exitY=1;exitDx=0;exitDy=0;entryX=0.5;entryY=0;entryDx=0;entryDy=0;" parent="1" source="rd8jLOXh-ryhbIn53XRB-2" target="rd8jLOXh-ryhbIn53XRB-5" edge="1">
          <mxGeometry relative="1" as="geometry" />
        </mxCell>
        <mxCell id="rd8jLOXh-ryhbIn53XRB-2" value="1&lt;font color=&quot;#ff3333&quot;&gt;1&lt;/font&gt;110110" style="rounded=0;whiteSpace=wrap;html=1;" parent="1" vertex="1">
          <mxGeometry x="360" y="290" width="120" height="30" as="geometry" />
        </mxCell>
        <mxCell id="rd8jLOXh-ryhbIn53XRB-8" style="edgeStyle=orthogonalEdgeStyle;rounded=0;orthogonalLoop=1;jettySize=auto;html=1;exitX=0.5;exitY=1;exitDx=0;exitDy=0;entryX=0.5;entryY=0;entryDx=0;entryDy=0;" parent="1" source="rd8jLOXh-ryhbIn53XRB-5" target="rd8jLOXh-ryhbIn53XRB-7" edge="1">
          <mxGeometry relative="1" as="geometry" />
        </mxCell>
        <mxCell id="rd8jLOXh-ryhbIn53XRB-5" value="1&lt;font color=&quot;#ff3333&quot;&gt;1&lt;/font&gt;101100" style="rounded=0;whiteSpace=wrap;html=1;" parent="1" vertex="1">
          <mxGeometry x="360" y="370" width="120" height="30" as="geometry" />
        </mxCell>
        <mxCell id="rd8jLOXh-ryhbIn53XRB-10" style="edgeStyle=orthogonalEdgeStyle;rounded=0;orthogonalLoop=1;jettySize=auto;html=1;exitX=0.5;exitY=1;exitDx=0;exitDy=0;entryX=0.5;entryY=0;entryDx=0;entryDy=0;" parent="1" source="rd8jLOXh-ryhbIn53XRB-7" target="rd8jLOXh-ryhbIn53XRB-9" edge="1">
          <mxGeometry relative="1" as="geometry" />
        </mxCell>
        <mxCell id="rd8jLOXh-ryhbIn53XRB-7" value="1&lt;font color=&quot;#ff3333&quot;&gt;1&lt;/font&gt;011000" style="rounded=0;whiteSpace=wrap;html=1;" parent="1" vertex="1">
          <mxGeometry x="360" y="450" width="120" height="30" as="geometry" />
        </mxCell>
        <mxCell id="rd8jLOXh-ryhbIn53XRB-14" style="edgeStyle=orthogonalEdgeStyle;rounded=0;orthogonalLoop=1;jettySize=auto;html=1;exitX=0.5;exitY=1;exitDx=0;exitDy=0;entryX=0.5;entryY=0;entryDx=0;entryDy=0;" parent="1" source="rd8jLOXh-ryhbIn53XRB-9" target="rd8jLOXh-ryhbIn53XRB-13" edge="1">
          <mxGeometry relative="1" as="geometry">
            <Array as="points">
              <mxPoint x="420" y="590" />
              <mxPoint x="500" y="590" />
            </Array>
          </mxGeometry>
        </mxCell>
        <mxCell id="rd8jLOXh-ryhbIn53XRB-22" style="edgeStyle=orthogonalEdgeStyle;rounded=0;orthogonalLoop=1;jettySize=auto;html=1;exitX=0.5;exitY=1;exitDx=0;exitDy=0;entryX=0;entryY=0.5;entryDx=0;entryDy=0;" parent="1" source="rd8jLOXh-ryhbIn53XRB-9" target="rd8jLOXh-ryhbIn53XRB-1" edge="1">
          <mxGeometry relative="1" as="geometry">
            <Array as="points">
              <mxPoint x="420" y="590" />
              <mxPoint x="340" y="590" />
              <mxPoint x="340" y="225" />
            </Array>
          </mxGeometry>
        </mxCell>
        <mxCell id="rd8jLOXh-ryhbIn53XRB-9" value="1&lt;font color=&quot;#ff3333&quot;&gt;0&lt;/font&gt;110000" style="rounded=0;whiteSpace=wrap;html=1;" parent="1" vertex="1">
          <mxGeometry x="360" y="530" width="120" height="30" as="geometry" />
        </mxCell>
        <mxCell id="rd8jLOXh-ryhbIn53XRB-16" style="edgeStyle=orthogonalEdgeStyle;rounded=0;orthogonalLoop=1;jettySize=auto;html=1;exitX=0.5;exitY=1;exitDx=0;exitDy=0;entryX=0.5;entryY=0;entryDx=0;entryDy=0;" parent="1" source="rd8jLOXh-ryhbIn53XRB-13" target="rd8jLOXh-ryhbIn53XRB-15" edge="1">
          <mxGeometry relative="1" as="geometry" />
        </mxCell>
        <mxCell id="rd8jLOXh-ryhbIn53XRB-13" value="0&lt;font color=&quot;#ff3333&quot;&gt;1&lt;/font&gt;100000" style="rounded=0;whiteSpace=wrap;html=1;" parent="1" vertex="1">
          <mxGeometry x="440" y="610" width="120" height="30" as="geometry" />
        </mxCell>
        <mxCell id="rd8jLOXh-ryhbIn53XRB-18" style="edgeStyle=orthogonalEdgeStyle;rounded=0;orthogonalLoop=1;jettySize=auto;html=1;exitX=0.5;exitY=1;exitDx=0;exitDy=0;entryX=0.5;entryY=0;entryDx=0;entryDy=0;" parent="1" source="rd8jLOXh-ryhbIn53XRB-15" target="rd8jLOXh-ryhbIn53XRB-17" edge="1">
          <mxGeometry relative="1" as="geometry" />
        </mxCell>
        <mxCell id="rd8jLOXh-ryhbIn53XRB-15" value="1&lt;font color=&quot;#ff3333&quot;&gt;1&lt;/font&gt;000000" style="rounded=0;whiteSpace=wrap;html=1;" parent="1" vertex="1">
          <mxGeometry x="440" y="690" width="120" height="30" as="geometry" />
        </mxCell>
        <mxCell id="rd8jLOXh-ryhbIn53XRB-35" style="edgeStyle=orthogonalEdgeStyle;rounded=0;orthogonalLoop=1;jettySize=auto;html=1;exitX=0.5;exitY=1;exitDx=0;exitDy=0;entryX=0.5;entryY=0;entryDx=0;entryDy=0;" parent="1" source="rd8jLOXh-ryhbIn53XRB-17" target="rd8jLOXh-ryhbIn53XRB-30" edge="1">
          <mxGeometry relative="1" as="geometry">
            <Array as="points">
              <mxPoint x="500" y="820" />
              <mxPoint x="580" y="820" />
            </Array>
          </mxGeometry>
        </mxCell>
        <mxCell id="rd8jLOXh-ryhbIn53XRB-36" style="edgeStyle=orthogonalEdgeStyle;rounded=0;orthogonalLoop=1;jettySize=auto;html=1;exitX=0.5;exitY=1;exitDx=0;exitDy=0;entryX=0.5;entryY=0;entryDx=0;entryDy=0;" parent="1" source="rd8jLOXh-ryhbIn53XRB-17" target="rd8jLOXh-ryhbIn53XRB-19" edge="1">
          <mxGeometry relative="1" as="geometry">
            <Array as="points">
              <mxPoint x="500" y="820" />
              <mxPoint x="420" y="820" />
            </Array>
          </mxGeometry>
        </mxCell>
        <mxCell id="rd8jLOXh-ryhbIn53XRB-42" style="edgeStyle=orthogonalEdgeStyle;rounded=0;orthogonalLoop=1;jettySize=auto;html=1;exitX=0;exitY=0.5;exitDx=0;exitDy=0;entryX=0;entryY=0.5;entryDx=0;entryDy=0;" parent="1" source="rd8jLOXh-ryhbIn53XRB-17" target="rd8jLOXh-ryhbIn53XRB-1" edge="1">
          <mxGeometry relative="1" as="geometry" />
        </mxCell>
        <mxCell id="rd8jLOXh-ryhbIn53XRB-17" value="1&lt;font color=&quot;#ff3333&quot;&gt;0&lt;/font&gt;000000" style="rounded=0;whiteSpace=wrap;html=1;" parent="1" vertex="1">
          <mxGeometry x="440" y="770" width="120" height="30" as="geometry" />
        </mxCell>
        <mxCell id="rd8jLOXh-ryhbIn53XRB-41" style="edgeStyle=orthogonalEdgeStyle;rounded=0;orthogonalLoop=1;jettySize=auto;html=1;entryX=0;entryY=0.5;entryDx=0;entryDy=0;" parent="1" source="rd8jLOXh-ryhbIn53XRB-19" target="rd8jLOXh-ryhbIn53XRB-1" edge="1">
          <mxGeometry relative="1" as="geometry">
            <Array as="points">
              <mxPoint x="340" y="865" />
              <mxPoint x="340" y="225" />
            </Array>
          </mxGeometry>
        </mxCell>
        <mxCell id="rd8jLOXh-ryhbIn53XRB-19" value="0&lt;font color=&quot;#ff3333&quot;&gt;0&lt;/font&gt;000000" style="rounded=0;whiteSpace=wrap;html=1;" parent="1" vertex="1">
          <mxGeometry x="360" y="850" width="120" height="30" as="geometry" />
        </mxCell>
        <mxCell id="rd8jLOXh-ryhbIn53XRB-25" value="&lt;font style=&quot;font-size: 30px;&quot;&gt;*&lt;/font&gt;" style="text;html=1;align=center;verticalAlign=middle;whiteSpace=wrap;rounded=0;" parent="1" vertex="1">
          <mxGeometry x="320" y="540" width="60" height="100" as="geometry" />
        </mxCell>
        <mxCell id="rd8jLOXh-ryhbIn53XRB-26" value="&lt;font style=&quot;font-size: 30px;&quot;&gt;*&lt;/font&gt;" style="text;html=1;align=center;verticalAlign=middle;whiteSpace=wrap;rounded=0;" parent="1" vertex="1">
          <mxGeometry x="320" y="735" width="60" height="100" as="geometry" />
        </mxCell>
        <mxCell id="rd8jLOXh-ryhbIn53XRB-28" value="&lt;font style=&quot;font-size: 30px;&quot;&gt;*&lt;/font&gt;" style="text;html=1;align=center;verticalAlign=middle;whiteSpace=wrap;rounded=0;" parent="1" vertex="1">
          <mxGeometry x="320" y="810" width="60" height="100" as="geometry" />
        </mxCell>
        <mxCell id="rd8jLOXh-ryhbIn53XRB-37" style="edgeStyle=orthogonalEdgeStyle;rounded=0;orthogonalLoop=1;jettySize=auto;html=1;exitX=1;exitY=0.5;exitDx=0;exitDy=0;entryX=0.5;entryY=0;entryDx=0;entryDy=0;" parent="1" source="rd8jLOXh-ryhbIn53XRB-30" target="rd8jLOXh-ryhbIn53XRB-2" edge="1">
          <mxGeometry relative="1" as="geometry">
            <Array as="points">
              <mxPoint x="660" y="865" />
              <mxPoint x="660" y="260" />
              <mxPoint x="420" y="260" />
            </Array>
          </mxGeometry>
        </mxCell>
        <mxCell id="rd8jLOXh-ryhbIn53XRB-30" value="1&lt;font color=&quot;#ff3333&quot;&gt;1&lt;/font&gt;111011" style="rounded=0;whiteSpace=wrap;html=1;" parent="1" vertex="1">
          <mxGeometry x="520" y="850" width="120" height="30" as="geometry" />
        </mxCell>
        <mxCell id="rd8jLOXh-ryhbIn53XRB-40" value="&lt;font style=&quot;font-size: 30px;&quot;&gt;*&lt;/font&gt;" style="text;html=1;align=center;verticalAlign=middle;whiteSpace=wrap;rounded=0;" parent="1" vertex="1">
          <mxGeometry x="540" y="770" width="60" height="100" as="geometry" />
        </mxCell>
        <mxCell id="ar7iZ5mE30AkS0RvJpqu-20" style="edgeStyle=orthogonalEdgeStyle;rounded=0;orthogonalLoop=1;jettySize=auto;html=1;exitX=0.5;exitY=1;exitDx=0;exitDy=0;entryX=0.5;entryY=0;entryDx=0;entryDy=0;" edge="1" parent="1" source="ar7iZ5mE30AkS0RvJpqu-1" target="ar7iZ5mE30AkS0RvJpqu-19">
          <mxGeometry relative="1" as="geometry" />
        </mxCell>
        <mxCell id="ar7iZ5mE30AkS0RvJpqu-1" value="0&lt;font color=&quot;#ff3333&quot;&gt;1&lt;/font&gt;111011" style="rounded=0;whiteSpace=wrap;html=1;" vertex="1" parent="1">
          <mxGeometry x="150" y="450" width="120" height="30" as="geometry" />
        </mxCell>
        <mxCell id="ar7iZ5mE30AkS0RvJpqu-22" style="edgeStyle=orthogonalEdgeStyle;rounded=0;orthogonalLoop=1;jettySize=auto;html=1;exitX=0;exitY=0.5;exitDx=0;exitDy=0;entryX=0.5;entryY=0;entryDx=0;entryDy=0;" edge="1" parent="1" source="ar7iZ5mE30AkS0RvJpqu-19" target="ar7iZ5mE30AkS0RvJpqu-1">
          <mxGeometry relative="1" as="geometry">
            <Array as="points">
              <mxPoint x="80" y="535" />
              <mxPoint x="80" y="430" />
              <mxPoint x="210" y="430" />
            </Array>
          </mxGeometry>
        </mxCell>
        <mxCell id="ar7iZ5mE30AkS0RvJpqu-19" value="1&lt;font color=&quot;#ff3333&quot;&gt;1&lt;/font&gt;111011" style="rounded=0;whiteSpace=wrap;html=1;" vertex="1" parent="1">
          <mxGeometry x="150" y="520" width="120" height="30" as="geometry" />
        </mxCell>
        <mxCell id="ar7iZ5mE30AkS0RvJpqu-21" style="edgeStyle=orthogonalEdgeStyle;rounded=0;orthogonalLoop=1;jettySize=auto;html=1;exitX=0;exitY=0.5;exitDx=0;exitDy=0;entryX=0.5;entryY=0;entryDx=0;entryDy=0;" edge="1" parent="1" source="ar7iZ5mE30AkS0RvJpqu-1" target="ar7iZ5mE30AkS0RvJpqu-1">
          <mxGeometry relative="1" as="geometry">
            <Array as="points">
              <mxPoint x="80" y="465" />
              <mxPoint x="80" y="430" />
              <mxPoint x="210" y="430" />
            </Array>
          </mxGeometry>
        </mxCell>
        <mxCell id="ar7iZ5mE30AkS0RvJpqu-23" value="5" style="text;html=1;align=center;verticalAlign=middle;whiteSpace=wrap;rounded=0;" vertex="1" parent="1">
          <mxGeometry x="60" y="440" width="60" height="30" as="geometry" />
        </mxCell>
        <mxCell id="ar7iZ5mE30AkS0RvJpqu-24" value="5" style="text;html=1;align=center;verticalAlign=middle;whiteSpace=wrap;rounded=0;" vertex="1" parent="1">
          <mxGeometry x="60" y="510" width="60" height="30" as="geometry" />
        </mxCell>
        <mxCell id="ar7iZ5mE30AkS0RvJpqu-25" value="&lt;font style=&quot;font-size: 30px;&quot;&gt;*&lt;/font&gt;" style="text;html=1;align=center;verticalAlign=middle;whiteSpace=wrap;rounded=0;" vertex="1" parent="1">
          <mxGeometry x="100" y="410" width="60" height="100" as="geometry" />
        </mxCell>
        <mxCell id="ar7iZ5mE30AkS0RvJpqu-27" value="8" style="text;html=1;align=center;verticalAlign=middle;whiteSpace=wrap;rounded=0;" vertex="1" parent="1">
          <mxGeometry x="170" y="480" width="60" height="30" as="geometry" />
        </mxCell>
      </root>
    </mxGraphModel>
  </diagram>
</mxfile>
